<?xml version="1.0" standalone="no"?>
<!DOCTYPE svg PUBLIC "-//W3C//DTD SVG 20010904//EN"
 "http://www.w3.org/TR/2001/REC-SVG-20010904/DTD/svg10.dtd">
<svg version="1.0" xmlns="http://www.w3.org/2000/svg"
 width="500.000000pt" height="500.000000pt" viewBox="0 0 500.000000 500.000000"
 preserveAspectRatio="xMidYMid meet">
<metadata>
Created by potrace 1.14, written by Peter Selinger 2001-2017
</metadata>
<g transform="translate(0.000000,500.000000) scale(0.100000,-0.100000)"
fill="#000000" stroke="none">
<path d="M2443 4790 c-43 -10 -96 -51 -124 -97 -29 -46 -32 -138 -7 -228 48
-178 45 -518 -7 -664 -8 -24 -15 -50 -15 -57 0 -8 -19 -53 -41 -100 -48 -97
-66 -104 -86 -34 -28 98 -76 161 -133 178 -53 15 -144 7 -188 -18 -55 -31 -94
-92 -228 -355 -20 -38 -64 -124 -100 -190 -35 -66 -92 -175 -126 -242 l-63
-123 -35 8 c-57 11 -143 7 -175 -10 -40 -21 -81 -61 -147 -144 -131 -165 -201
-305 -274 -544 -21 -72 -45 -257 -43 -345 1 -67 21 -248 32 -290 40 -152 65
-218 150 -395 108 -224 269 -415 479 -571 140 -104 126 -96 283 -173 172 -85
279 -123 470 -167 90 -21 122 -23 335 -23 129 1 271 7 315 13 153 22 261 41
295 52 19 5 53 14 75 18 36 8 66 18 220 79 88 34 135 57 135 64 0 5 7 8 16 8
23 0 166 88 270 166 239 181 415 423 522 719 73 202 95 343 95 605 1 247 -17
391 -79 646 -42 170 -51 191 -208 451 -50 84 -98 165 -106 180 -9 16 -23 39
-32 53 -9 14 -25 41 -35 60 -50 94 -122 198 -151 218 -83 58 -199 53 -269 -12
-34 -31 -35 -29 -57 89 -61 330 -197 638 -380 857 -64 77 -130 132 -223 186
-36 20 -79 46 -96 56 -124 74 -188 93 -264 76z"/>
</g>
</svg>
